<?xml version="1.0" encoding="UTF-8" standalone="no"?>
<svg
   width="110px"
   height="22px"
   viewBox="0 0 110 22"
   version="1.1"
   id="svg12"
   sodipodi:docname="logo-dark.svg"
   xmlns:inkscape="http://www.inkscape.org/namespaces/inkscape"
   xmlns:sodipodi="http://sodipodi.sourceforge.net/DTD/sodipodi-0.dtd"
   xmlns="http://www.w3.org/2000/svg"
   xmlns:svg="http://www.w3.org/2000/svg"
   xmlns:rdf="http://www.w3.org/1999/02/22-rdf-syntax-ns#"
   xmlns:cc="http://creativecommons.org/ns#"
   xmlns:dc="http://purl.org/dc/elements/1.1/">
  <defs
     id="defs16" />
  <sodipodi:namedview
     id="namedview14"
     pagecolor="#ffffff"
     bordercolor="#666666"
     borderopacity="1.0"
     inkscape:pageshadow="2"
     inkscape:pageopacity="0.0"
     inkscape:pagecheckerboard="0"
     showgrid="false" />
  <!-- Generator: Sketch 55.2 (78181) - https://sketchapp.com -->
  <title
     id="title2">stellar_logo white</title>
  <desc
     id="desc4">Created with Sketch.</desc>
  <g
     id="Page-1"
     stroke="none"
     stroke-width="1"
     fill="none"
     fill-rule="evenodd"
     transform="scale(0.99997262)">
    <g
       id="stellar_logo-white"
       fill-rule="nonzero">
      <path
         d="M 40.713058,8.5056937 C 40.568172,7.0312633 39.5284,6.1534233 37.696015,6.1534233 c -1.789771,0 -3.017042,0.8352264 -3.017042,2.0539753 0,1.1846579 1.28693,1.7642028 3.298292,2.4204524 l 0.894886,0.289772 c 3.281246,1.073863 5.122154,2.514202 5.122154,5.215904 0,3.161929 -2.539771,5.130677 -6.400562,5.130677 -3.57102,0 -6.630676,-1.832384 -6.690335,-5.54829 h 3.28977 c 0.102272,1.789771 1.482953,2.710225 3.400565,2.710225 2.019884,0 3.144883,-1.031249 3.144883,-2.267044 0,-1.218748 -0.988635,-1.943179 -3.571019,-2.735792 l -0.920454,-0.264205 c -2.838065,-0.852263 -4.849427,-2.437497 -4.849427,-4.9516994 0,-2.9318154 2.701702,-4.9005635 6.315335,-4.9005635 3.630678,0 6.14488,2.0710207 6.204539,5.1988586 z M 54.046536,7.9091034 v 2.4545436 h -2.284089 v 6.630675 c 0,1.218749 0.59659,1.397726 1.321022,1.397726 0.306818,0 0.622158,-0.04261 0.843749,-0.102273 l 0.519886,2.548293 c -0.247159,0.102273 -1.073863,0.332386 -2.284089,0.332386 -1.985794,0 -3.707383,-1.372157 -3.707383,-3.673292 V 10.363647 H 46.827793 V 7.9091034 h 1.627839 V 5.1136515 h 3.306815 v 2.7954519 z m 9.148816,13.3380556 c -3.928973,0 -6.340903,-2.531248 -6.340903,-6.622153 0,-3.997155 2.284089,-6.886357 6.20454,-6.886357 3.32386,0 5.855108,2.0880662 5.855108,6.289767 v 1.389203 h -8.863628 c 0.213068,1.94318 1.235794,3.119315 3.119315,3.119315 1.576703,0 2.292612,-0.843749 2.642043,-1.815339 l 2.965906,0.801136 c -0.477272,1.798293 -2.181816,3.724428 -5.582381,3.724428 z M 63.033421,10.423306 c -1.517044,0 -2.539771,0.997158 -2.889202,2.718747 h 5.633517 c 0,-1.542612 -1.005681,-2.718747 -2.744315,-2.718747 z M 75.693603,3.5454712 V 21 H 72.386788 V 3.5454712 Z m 7.154497,0 V 21 H 79.541285 V 3.5454712 Z M 94.067935,21 v -1.47443 h -0.153409 c -0.451704,0.835226 -1.508521,1.738634 -3.349428,1.738634 -2.326703,0 -4.26136,-1.423294 -4.26136,-3.954541 0,-2.531248 1.951703,-3.801133 5.267041,-4.107951 1.159089,-0.127841 2.35227,-0.170454 2.35227,-0.860795 v -0.196022 c 0,-1.167613 -0.741476,-1.823862 -1.892043,-1.823862 -1.218749,0 -2.113635,0.698863 -2.352271,1.585226 l -3.110793,-0.451704 c 0.605114,-2.41193 2.761361,-3.715906 5.548291,-3.715906 2.599429,0 5.139199,1.1505671 5.139199,4.474428 V 21 Z m -0.144886,-4.363632 v -1.730112 c -0.247159,0.272727 -1.440339,0.443181 -2.03693,0.519886 -1.56818,0.178977 -2.360793,0.707385 -2.360793,1.840907 0,0.937499 0.741477,1.491476 1.832385,1.491476 1.457385,0 2.565338,-0.980113 2.565338,-2.122157 z M 109.4213,8.1562622 108.39005,11.028419 c -0.17898,-0.102273 -0.68182,-0.272727 -1.21875,-0.272727 -1.56818,0 -2.65057,1.372157 -2.66761,2.82102 V 21 h -3.30682 V 7.9091034 h 3.23864 v 1.8579528 h 0.1875 c 0.375,-1.3295442 1.71306,-2.0369299 2.99147,-2.0369299 0.68182,0 1.39772,0.1874998 1.80682,0.4261359 z"
         id="Stellar"
         fill="#000000" />
      <g
         id="Group-7-Copy">
        <rect
           id="Rectangle"
           fill="#24d5d8"
           opacity="0.519857"
           x="0"
           y="0"
           width="19"
           height="15" />
        <rect
           id="Rectangle-Copy-94"
           fill="#33c92d"
           x="4"
           y="4"
           width="20"
           height="17" />
      </g>
    </g>
  </g>
  <metadata
     id="metadata897">
    <rdf:RDF>
      <cc:Work
         rdf:about="">
        <dc:title>stellar_logo white</dc:title>
      </cc:Work>
    </rdf:RDF>
  </metadata>
</svg>
